<?xml version="1.0" encoding="utf-8"?>
<!-- Generator: Adobe Illustrator 24.0.3, SVG Export Plug-In . SVG Version: 6.00 Build 0)  -->
<svg version="1.1" id="Слой_1" xmlns="http://www.w3.org/2000/svg" xmlns:xlink="http://www.w3.org/1999/xlink" x="0px" y="0px"
	 viewBox="0 0 492.9 234.3" style="enable-background:new 0 0 492.9 234.3;" xml:space="preserve">
<style type="text/css">
	.st0{fill:#FFFFFF;}
	.st1{fill:#5E50E2;}
</style>
<g>
	<g>
		<path class="st0" d="M185.7,111.4c-4.3-2.2-7.7-5.3-10.2-9.3c-2.4-4-3.7-8.4-3.7-13.5c0-4.9,1.2-9.4,3.7-13.4
			c2.4-4,5.8-7,10.1-9.2c4.3-2.2,9.2-3.3,14.6-3.3c5.4,0,10.3,1.1,14.7,3.3c4.3,2.2,7.7,5.3,10.1,9.2c2.4,3.9,3.6,8.4,3.6,13.4
			c0,5-1.2,9.5-3.6,13.5c-2.4,4-5.8,7.1-10.1,9.3c-4.3,2.2-9.2,3.3-14.7,3.3C194.9,114.7,190,113.6,185.7,111.4z M207.9,97.5
			c2-2.1,3-5.1,3-8.9c0-3.7-1-6.6-3-8.7c-2-2.1-4.5-3.2-7.6-3.2c-3.1,0-5.6,1.1-7.6,3.2c-2,2.1-3,5-3,8.7c0,3.8,1,6.7,3,8.9
			c2,2.1,4.5,3.2,7.6,3.2C203.4,100.7,205.9,99.7,207.9,97.5z"/>
		<path class="st0" d="M281,66c3.7,2.1,6.7,5.2,8.9,9.1c2.2,3.9,3.3,8.5,3.3,13.7c0,5.2-1.1,9.8-3.3,13.7c-2.2,3.9-5.2,7-8.9,9.1
			c-3.7,2.1-7.9,3.2-12.5,3.2c-5.9,0-10.5-1.8-14-5.3v22.5h-17.6V63.6h16.8v5c3.3-3.9,8.2-5.8,14.8-5.8C273,62.8,277.2,63.8,281,66z
			 M272.4,97.5c2-2.1,3-5.1,3-8.8s-1-6.6-3-8.8c-2-2.1-4.5-3.2-7.6-3.2c-3.1,0-5.6,1.1-7.6,3.2c-2,2.1-3,5.1-3,8.8s1,6.6,3,8.8
			c2,2.1,4.5,3.2,7.6,3.2C267.9,100.7,270.4,99.7,272.4,97.5z"/>
		<path class="st0" d="M336,111.9c-1.5,0.9-3.3,1.6-5.4,2.1c-2.1,0.5-4.4,0.7-6.8,0.7c-6.6,0-11.6-1.6-15.1-4.8
			c-3.5-3.2-5.3-8-5.3-14.4V78.6H296V65.5h7.3V52.4H321v13.1h11.5v13.2H321v16.7c0,1.8,0.5,3.2,1.4,4.2c1,1,2.2,1.5,3.9,1.5
			c2,0,3.8-0.5,5.4-1.6L336,111.9z"/>
		<path class="st0" d="M343.8,55.3c-2-1.8-3-4-3-6.7c0-2.7,1-4.9,3-6.7c2-1.8,4.6-2.7,7.8-2.7c3.2,0,5.8,0.9,7.8,2.6
			c2,1.7,3,3.9,3,6.5c0,2.8-1,5.1-3,6.9c-2,1.8-4.6,2.7-7.8,2.7C348.4,58,345.8,57.1,343.8,55.3z M342.8,63.6h17.6v50.3h-17.6V63.6z
			"/>
		<path class="st0" d="M382.5,111.4c-4.3-2.2-7.7-5.3-10.2-9.3c-2.4-4-3.7-8.4-3.7-13.5c0-4.9,1.2-9.4,3.7-13.4
			c2.4-4,5.8-7,10.1-9.2c4.3-2.2,9.2-3.3,14.6-3.3c5.4,0,10.3,1.1,14.7,3.3c4.3,2.2,7.7,5.3,10.1,9.2c2.4,3.9,3.6,8.4,3.6,13.4
			c0,5-1.2,9.5-3.6,13.5c-2.4,4-5.8,7.1-10.1,9.3c-4.3,2.2-9.2,3.3-14.7,3.3C391.7,114.7,386.8,113.6,382.5,111.4z M404.7,97.5
			c2-2.1,3-5.1,3-8.9c0-3.7-1-6.6-3-8.7c-2-2.1-4.5-3.2-7.6-3.2c-3.1,0-5.6,1.1-7.6,3.2c-2,2.1-3,5-3,8.7c0,3.8,1,6.7,3,8.9
			c2,2.1,4.5,3.2,7.6,3.2C400.2,100.7,402.7,99.7,404.7,97.5z"/>
		<path class="st0" d="M481.5,68.3c3.8,3.7,5.7,9.3,5.7,16.8v28.8h-17.6V88c0-6.9-2.8-10.3-8.3-10.3c-3,0-5.5,1-7.3,3
			c-1.8,2-2.7,5-2.7,8.9v24.3h-17.6V63.6h16.8v5.5c2-2,4.3-3.6,7.1-4.7c2.7-1.1,5.7-1.6,8.9-1.6C472.7,62.8,477.7,64.6,481.5,68.3z"
			/>
		<path class="st0" d="M301.6,143.7h12v13.2h-11.5v35.3h-17.6v-35.3h-7.3v-13.2h7.3v-1.3c0-6.1,1.8-11,5.5-14.6
			c3.7-3.6,8.8-5.4,15.5-5.4c2.2,0,4.4,0.2,6.5,0.6c2.1,0.4,3.8,1.1,5.2,1.9l-4.4,12.4c-1.7-1-3.5-1.5-5.3-1.5
			c-1.9,0-3.3,0.6-4.3,1.7c-1,1.1-1.5,2.8-1.5,4.9V143.7z M320.1,123.3h17.6v68.9h-17.6V123.3z"/>
		<path class="st0" d="M359.8,189.6c-4.3-2.2-7.7-5.3-10.2-9.3c-2.4-4-3.7-8.4-3.7-13.5c0-4.9,1.2-9.4,3.7-13.4
			c2.4-4,5.8-7,10.1-9.2c4.3-2.2,9.2-3.3,14.6-3.3c5.4,0,10.3,1.1,14.7,3.3c4.3,2.2,7.7,5.3,10.1,9.2c2.4,3.9,3.6,8.4,3.6,13.4
			c0,5-1.2,9.5-3.6,13.5c-2.4,4-5.8,7.1-10.1,9.3c-4.3,2.2-9.2,3.3-14.7,3.3C369,193,364.1,191.9,359.8,189.6z M382,175.8
			c2-2.1,3-5.1,3-8.9c0-3.7-1-6.6-3-8.7c-2-2.1-4.5-3.2-7.6-3.2c-3.1,0-5.6,1.1-7.6,3.2c-2,2.1-3,5-3,8.7c0,3.8,1,6.7,3,8.9
			c2,2.1,4.5,3.2,7.6,3.2C377.4,179,380,177.9,382,175.8z"/>
		<path class="st0" d="M492.9,141.8l-17.9,50.3h-17.1l-9.5-27.4l-9.8,27.4h-17.1l-17.9-50.3h16.7l10.3,30.4l10.7-30.4h15l10.4,30.7
			l10.7-30.7H492.9z"/>
	</g>
</g>
<g>
	<g>
		<path class="st1" d="M196.5,139.4c-15.9,0-28.9,13-28.9,28.9s13,28.9,28.9,28.9c15.9,0,28.9-13,28.9-28.9S212.4,139.4,196.5,139.4
			z"/>
		<path class="st1" d="M106.4,178.8l-2.4-21.5c9.3-1.8,17.1-7.6,21.6-15.6l43.8,16l1.9-5.1l-43.4-15.9c1.1-3.2,1.7-6.7,1.7-10.3
			c0-10.4-5.1-19.7-12.9-25.4L131,79.9c2.6,1.3,5.6,2.1,8.8,2.1c10.9,0,19.8-8.9,19.8-19.8c0-10.9-8.9-19.8-19.8-19.8
			c-10.9,0-19.8,8.9-19.8,19.8c0,5.8,2.5,11,6.5,14.7L112,98.1c-4.2-2.1-8.9-3.3-13.9-3.3c-3.7,0-7.2,0.6-10.5,1.8L60,50.8
			C67.2,45.8,72,37.4,72,28C72,12.5,59.4,0,44,0s-28,12.5-28,28c0,15.4,12.5,28,28,28c4,0,7.8-0.9,11.3-2.4L82.5,99
			c-9.5,5.4-16,15.7-16,27.4c0,1.3,0.1,2.6,0.2,3.8l-20.2,1.4c-1.4-11.5-11.3-20.5-23.2-20.5C10.5,111.2,0,121.7,0,134.5
			c0,12.9,10.5,23.4,23.4,23.4c12,0,21.9-9.1,23.2-20.8l21.3-1.5c1.6,5.1,4.4,9.6,8.1,13.2l-39.7,45.1c-3.3-2-7.2-3.2-11.3-3.2
			c-12,0-21.8,9.8-21.8,21.8c0,12,9.8,21.8,21.8,21.8c12,0,21.8-9.8,21.8-21.8c0-5.9-2.4-11.3-6.2-15.2l39.6-45
			c5.1,3.5,11.2,5.6,17.9,5.6c0.2,0,0.4,0,0.5,0l2.4,21c-10.5,1.5-18.6,10.5-18.6,21.4c0,11.9,9.7,21.6,21.6,21.6
			c11.9,0,21.6-9.7,21.6-21.6C125.6,189.2,117.2,180,106.4,178.8z"/>
	</g>
</g>
</svg>
