<?xml version="1.0" encoding="utf-8"?>
<!-- Generator: Adobe Illustrator 24.0.3, SVG Export Plug-In . SVG Version: 6.00 Build 0)  -->
<svg version="1.1" id="Слой_1" xmlns="http://www.w3.org/2000/svg" xmlns:xlink="http://www.w3.org/1999/xlink" x="0px" y="0px"
	 viewBox="0 0 492.8 234.3" style="enable-background:new 0 0 492.8 234.3;" xml:space="preserve">
<style type="text/css">
	.st0{fill:#5E50E2;}
	.st1{fill:#0B2242;}
</style>
<g>
	<g>
		<path class="st0" d="M194.9,111.5c-4.2-2.2-7.5-5.2-9.9-9c-2.4-3.8-3.6-8.2-3.6-13.1c0-4.8,1.2-9.1,3.6-13c2.4-3.8,5.6-6.8,9.8-9
			c4.2-2.1,8.9-3.2,14.2-3.2c5.3,0,10,1.1,14.2,3.2c4.2,2.1,7.5,5.1,9.8,8.9c2.3,3.8,3.5,8.1,3.5,13c0,4.9-1.2,9.2-3.5,13.1
			s-5.6,6.8-9.8,9c-4.2,2.2-8.9,3.2-14.2,3.2C203.9,114.7,199.1,113.6,194.9,111.5z M216.5,98c1.9-2.1,2.9-4.9,2.9-8.6
			c0-3.6-1-6.4-2.9-8.5c-1.9-2-4.4-3.1-7.4-3.1c-3,0-5.5,1-7.4,3.1c-1.9,2-2.9,4.9-2.9,8.5c0,3.7,1,6.5,2.9,8.6
			c1.9,2.1,4.4,3.1,7.4,3.1C212.1,101.1,214.5,100.1,216.5,98z"/>
		<path class="st0" d="M287.3,67.4c3.6,2.1,6.5,5,8.6,8.8c2.1,3.8,3.2,8.2,3.2,13.3s-1.1,9.5-3.2,13.3c-2.1,3.8-5,6.8-8.6,8.8
			c-3.6,2.1-7.7,3.1-12.1,3.1c-5.7,0-10.2-1.7-13.6-5.1v21.8h-17.1V65.1h16.3V70c3.2-3.8,8-5.7,14.4-5.7
			C279.7,64.3,283.7,65.3,287.3,67.4z M279,98c1.9-2.1,2.9-4.9,2.9-8.5c0-3.6-1-6.4-2.9-8.5c-1.9-2.1-4.4-3.1-7.4-3.1
			c-3,0-5.5,1-7.4,3.1c-1.9,2.1-2.9,4.9-2.9,8.5c0,3.6,1,6.4,2.9,8.5c1.9,2.1,4.4,3.1,7.4,3.1C274.6,101.1,277.1,100.1,279,98z"/>
		<path class="st0" d="M340.7,111.9c-1.4,0.9-3.2,1.6-5.3,2.1c-2.1,0.5-4.3,0.7-6.6,0.7c-6.4,0-11.2-1.6-14.7-4.7
			c-3.4-3.1-5.1-7.8-5.1-14V79.7H302V66.9h7.1V54.2h17.1v12.7h11.2v12.8h-11.2v16.2c0,1.7,0.5,3.1,1.4,4.1c0.9,1,2.2,1.5,3.7,1.5
			c2,0,3.7-0.5,5.2-1.5L340.7,111.9z"/>
		<path class="st0" d="M348.3,57.1c-1.9-1.7-2.9-3.9-2.9-6.5c0-2.6,1-4.7,2.9-6.5c1.9-1.7,4.4-2.6,7.6-2.6c3.1,0,5.6,0.8,7.6,2.5
			c1.9,1.7,2.9,3.8,2.9,6.3c0,2.7-1,4.9-2.9,6.7c-1.9,1.8-4.4,2.7-7.6,2.7C352.7,59.7,350.2,58.8,348.3,57.1z M347.3,65.1h17.1v48.8
			h-17.1V65.1z"/>
		<path class="st0" d="M385.8,111.5c-4.2-2.2-7.5-5.2-9.9-9c-2.4-3.8-3.6-8.2-3.6-13.1c0-4.8,1.2-9.1,3.6-13c2.4-3.8,5.6-6.8,9.8-9
			c4.2-2.1,8.9-3.2,14.2-3.2c5.3,0,10,1.1,14.2,3.2c4.2,2.1,7.5,5.1,9.8,8.9c2.3,3.8,3.5,8.1,3.5,13c0,4.9-1.2,9.2-3.5,13.1
			s-5.6,6.8-9.8,9c-4.2,2.2-8.9,3.2-14.2,3.2C394.7,114.7,390,113.6,385.8,111.5z M407.3,98c1.9-2.1,2.9-4.9,2.9-8.6
			c0-3.6-1-6.4-2.9-8.5c-1.9-2-4.4-3.1-7.4-3.1c-3,0-5.5,1-7.4,3.1c-1.9,2-2.9,4.9-2.9,8.5c0,3.7,1,6.5,2.9,8.6
			c1.9,2.1,4.4,3.1,7.4,3.1C403,101.1,405.4,100.1,407.3,98z"/>
		<path class="st0" d="M481.8,69.7c3.7,3.6,5.5,9,5.5,16.3v27.9h-17.1V88.8c0-6.7-2.7-10-8-10c-2.9,0-5.3,1-7.1,2.9
			c-1.8,1.9-2.7,4.8-2.7,8.6v23.6h-17.1V65.1h16.3v5.3c1.9-2,4.2-3.5,6.8-4.5c2.6-1,5.5-1.6,8.6-1.6
			C473.3,64.3,478.1,66.1,481.8,69.7z"/>
		<path class="st0" d="M307.4,145.2H319v12.8h-11.2v34.2h-17.1v-34.2h-7.1v-12.8h7.1v-1.3c0-5.9,1.8-10.6,5.4-14.1
			c3.6-3.5,8.6-5.2,15-5.2c2.2,0,4.3,0.2,6.3,0.6c2,0.4,3.7,1.1,5,1.9l-4.2,12.1c-1.7-1-3.4-1.4-5.1-1.4c-1.8,0-3.2,0.5-4.2,1.6
			c-1,1.1-1.5,2.7-1.5,4.8V145.2z M325.3,125.4h17.1v66.8h-17.1V125.4z"/>
		<path class="st0" d="M363.8,189.7c-4.2-2.2-7.5-5.2-9.9-9c-2.4-3.8-3.6-8.2-3.6-13.1c0-4.8,1.2-9.1,3.6-13c2.4-3.8,5.6-6.8,9.8-9
			c4.2-2.1,8.9-3.2,14.2-3.2c5.3,0,10,1.1,14.2,3.2c4.2,2.1,7.5,5.1,9.8,8.9c2.3,3.8,3.5,8.1,3.5,13c0,4.9-1.2,9.2-3.5,13.1
			s-5.6,6.8-9.8,9c-4.2,2.2-8.9,3.2-14.2,3.2C372.7,192.9,368,191.9,363.8,189.7z M385.3,176.3c1.9-2.1,2.9-4.9,2.9-8.6
			c0-3.6-1-6.4-2.9-8.5c-1.9-2-4.4-3.1-7.4-3.1c-3,0-5.5,1-7.4,3.1c-1.9,2-2.9,4.9-2.9,8.5c0,3.7,1,6.5,2.9,8.6
			c1.9,2.1,4.4,3.1,7.4,3.1C380.9,179.4,383.4,178.3,385.3,176.3z"/>
		<path class="st0" d="M492.8,143.4l-17.4,48.8h-16.6l-9.2-26.5l-9.5,26.5h-16.6l-17.4-48.8h16.2l10,29.5l10.3-29.5h14.6l10.1,29.8
			l10.4-29.8H492.8z"/>
	</g>
	<g>
		<path class="st1" d="M196.5,139.4c-15.9,0-28.9,13-28.9,28.9s13,28.9,28.9,28.9c15.9,0,28.9-13,28.9-28.9S212.4,139.4,196.5,139.4
			z"/>
		<path class="st1" d="M106.4,178.8l-2.4-21.5c9.3-1.8,17.1-7.6,21.6-15.6l43.8,16l1.9-5.1l-43.4-15.9c1.1-3.2,1.7-6.7,1.7-10.3
			c0-10.4-5.1-19.7-12.9-25.4L131,79.9c2.6,1.3,5.6,2.1,8.8,2.1c10.9,0,19.8-8.9,19.8-19.8c0-10.9-8.9-19.8-19.8-19.8
			c-10.9,0-19.8,8.9-19.8,19.8c0,5.8,2.5,11,6.5,14.7L112,98.1c-4.2-2.1-8.9-3.3-13.9-3.3c-3.7,0-7.2,0.6-10.5,1.8L60,50.8
			C67.2,45.8,72,37.4,72,28C72,12.5,59.4,0,44,0s-28,12.5-28,28c0,15.4,12.5,28,28,28c4,0,7.8-0.9,11.3-2.4L82.5,99
			c-9.5,5.4-16,15.7-16,27.4c0,1.3,0.1,2.6,0.2,3.8l-20.2,1.4c-1.4-11.5-11.3-20.5-23.2-20.5C10.5,111.2,0,121.7,0,134.5
			c0,12.9,10.5,23.4,23.4,23.4c12,0,21.9-9.1,23.2-20.8l21.3-1.5c1.6,5.1,4.4,9.6,8.1,13.2l-39.7,45.1c-3.3-2-7.2-3.2-11.3-3.2
			c-12,0-21.8,9.8-21.8,21.8c0,12,9.8,21.8,21.8,21.8c12,0,21.8-9.8,21.8-21.8c0-5.9-2.4-11.3-6.2-15.2l39.6-45
			c5.1,3.5,11.2,5.6,17.9,5.6c0.2,0,0.4,0,0.5,0l2.4,21c-10.5,1.5-18.6,10.5-18.6,21.4c0,11.9,9.7,21.6,21.6,21.6
			c11.9,0,21.6-9.7,21.6-21.6C125.6,189.2,117.2,180,106.4,178.8z"/>
	</g>
</g>
</svg>
